<svg width="412" height="448" viewBox="0 0 412 448" fill="none" xmlns="http://www.w3.org/2000/svg">
<g clip-path="url(#clip0_2500_17615)">
<path opacity="0.18" d="M255.697 441.949C343.843 429.089 397.331 366.227 409.384 291.412C416.794 245.45 408.573 194.956 383.144 148.751C316.309 27.2934 147.495 24.4718 147.495 24.4718C50.347 19.6229 69.479 184.789 75.0999 220.396C78.1057 239.254 59.1841 264.429 39.5561 291.42C22.1599 315.354 4.19263 340.726 0.382751 364.404C-7.72543 414.754 113.417 462.759 255.697 441.949Z" fill="url(#paint0_linear_2500_17615)"/>
<path d="M255.697 443.024C343.843 430.165 397.331 367.287 409.385 292.488H39.5564C22.1602 316.415 4.1929 341.787 0.383026 365.464C-7.72516 415.822 113.417 463.82 255.697 443.024Z" fill="#130160"/>
<path d="M255.697 443.024C343.843 430.165 397.331 367.287 409.385 292.488H39.5564C22.1602 316.415 4.19296 341.787 0.383087 365.464C-7.7251 415.822 113.417 463.82 255.697 443.024Z" fill="#CCE9FF"/>
<path opacity="0.18" d="M254.631 378.632C259.087 378.541 264.4 377.936 266.451 373.927C267.458 371.937 267.33 369.585 267.668 367.376C270.674 347.481 305.241 348.351 310.915 329.061C311.403 327.389 311.561 325.392 310.411 324.099C309.382 322.956 307.691 322.767 306.165 322.661L255.931 319.113C253.902 311.64 261.837 305.263 269.171 302.895C302.017 292.304 339.305 314.068 371.565 301.745C373.285 301.087 375.104 300.232 375.915 298.553C378.245 293.764 370.776 290.481 365.485 290.398L238.309 288.386C235.634 288.341 232.899 288.31 230.344 289.142C226.414 290.421 223.423 293.568 220.575 296.601C208.529 309.567 196.077 322.737 180.297 330.68C151.366 345.234 116.814 339.856 85.05 345.998C75.8447 347.776 64.5728 354.138 66.8272 363.276C74.0261 391.84 127.597 381.159 146.88 380.773L254.631 378.632Z" fill="#1D2741"/>
<path d="M112.028 62.2031L111.967 87.121L102.311 112.712L94.451 108.93C93.4664 108.453 92.3395 108.367 91.2949 108.69C90.2504 109.012 89.3649 109.719 88.8151 110.67L86.681 114.376C86.294 115.043 86.0452 115.782 85.9494 116.549C85.8535 117.315 85.9127 118.093 86.1233 118.836C86.3339 119.578 86.6916 120.271 87.1749 120.871C87.6581 121.471 88.2569 121.966 88.9353 122.327C94.6163 125.353 106.219 132.6 108.39 132.6C111.719 132.6 121.293 117.599 121.293 117.599L112.028 62.2031Z" fill="#130160"/>
<path d="M91.3091 108.652C91.3091 108.652 94.8635 111.429 93.1877 114.477C91.512 117.526 85.9061 117.647 85.9061 117.647C85.9061 117.647 81.2997 109.439 91.3091 108.652Z" fill="url(#paint1_linear_2500_17615)"/>
<path d="M88.7684 91.767C87.0147 91.9498 85.2783 92.2736 83.5759 92.7352L75.7457 94.6415C75.3459 94.6905 74.9773 94.8841 74.7087 95.1862C74.2879 95.8292 74.9341 96.6991 75.6405 96.9639C77.8949 97.8868 80.7504 96.2074 82.7643 97.5312C83.8915 98.2877 84.2672 99.8006 85.1689 100.814C86.3112 102.206 88.1748 102.766 89.9632 102.963C91.7517 103.159 93.5702 103.076 95.3136 103.485C97.9362 104.097 100.747 105.799 103.099 104.476C103.341 104.352 103.544 104.164 103.685 103.931C103.978 103.371 103.625 102.698 103.339 102.138C102.536 100.552 102.172 98.7779 102.287 97.0017C102.4 94.5129 102.467 94.6945 99.92 93.7943C96.3506 92.5234 92.6009 91.4644 88.7684 91.767Z" fill="#DBA17B"/>
<path d="M85.4481 220.856L85.666 226.091L76.5884 226.015L75.9121 218.844L85.4481 220.856Z" fill="#DBA17B"/>
<path d="M85.6574 226.091L76.5873 226.016L73.8069 229.624C73.8069 229.624 61.7235 234.011 59.4316 240.003C57.1397 245.994 57.6356 249.08 57.6356 249.08L89.5273 238.55L85.6574 226.091Z" fill="#130160"/>
<path d="M152.004 138.691C152.004 138.691 88.0476 139.168 82.7874 142.86C68.1942 153.094 72.7029 219.156 72.7029 219.156L85.7256 222.939L96.2835 166.786L152.004 138.691Z" fill="#25233A"/>
<path d="M282.884 215.344H229.17V252.834H282.884V215.344ZM286.611 252.834H232.897V294.621H286.611V252.834Z" fill="#130160"/>
<path d="M260.447 215.344H250.769V222.969H260.447V215.344Z" fill="url(#paint2_linear_2500_17615)"/>
<path d="M265.707 252.688H256.028V260.313H265.707V252.688Z" fill="url(#paint3_linear_2500_17615)"/>
<path d="M255.607 222.977H254.863V252.698H255.607V222.977Z" fill="url(#paint4_linear_2500_17615)"/>
<path d="M260.822 260.32H260.078V290.042H260.822V260.32Z" fill="url(#paint5_linear_2500_17615)"/>
<path d="M282.172 120.52H218.155V165.204H282.172V120.52Z" fill="#130160"/>
<path d="M282.172 120.52H218.155V165.204H282.172V120.52Z" fill="#4C24FF"/>
<path d="M286.605 165.195H222.597V214.993H286.605V165.195Z" fill="#130160"/>
<path d="M286.605 165.195H222.597V214.993H286.605V165.195Z" fill="url(#paint6_linear_2500_17615)"/>
<path d="M255.871 174.121H254.984V209.539H255.871V174.121Z" fill="url(#paint7_linear_2500_17615)"/>
<path d="M352.439 184.699H279.436V235.655H352.439V184.699Z" fill="#130160"/>
<path d="M279.436 214.995V235.654H352.439V184.691H286.605V214.995H279.436Z" fill="#130160"/>
<path d="M286.605 184.691H279.437V214.995H286.605V184.691Z" fill="url(#paint8_linear_2500_17615)"/>
<path d="M371.533 235.652H298.529V292.448H371.533V235.652Z" fill="#130160"/>
<path d="M371.533 235.652H298.529V292.448H371.533V235.652Z" fill="#4C24FF"/>
<path d="M355.912 76.75H282.908V127.705H355.912V76.75Z" fill="#130160"/>
<path d="M355.912 76.75H282.908V127.705H355.912V76.75Z" fill="#130160"/>
<path d="M360.977 127.707H287.973V184.502H360.977V127.707Z" fill="#130160"/>
<path d="M360.977 127.707H287.973V184.502H360.977V127.707Z" fill="#4C24FF"/>
<path opacity="0.2" d="M287.972 154.07V184.503C287.972 184.503 298.973 170.372 298.492 162.686C298.012 155.001 287.972 154.07 287.972 154.07Z" fill="url(#paint9_linear_2500_17615)"/>
<path opacity="0.2" d="M240.887 195.824L241.39 214.993H286.605V165.195H282.172V159.219L275.431 165.195L255.871 182.541L254.984 183.327L240.887 195.824Z" fill="url(#paint10_linear_2500_17615)"/>
<path d="M210.121 168.867H92.5335V250.943H210.121V168.867Z" fill="#130160"/>
<path d="M210.121 168.867H92.5335V250.943H210.121V168.867Z" fill="#4C24FF"/>
<path d="M240.887 250.941H123.299V342.42H240.887V250.941Z" fill="#130160"/>
<path d="M240.887 250.941H123.299V342.42H240.887V250.941Z" fill="#130160"/>
<path d="M244.966 342.42H261.152V186.809C261.142 184.654 260.285 182.592 258.769 181.072C257.252 179.552 255.199 178.699 253.059 178.699C250.913 178.699 248.854 179.558 247.336 181.085C245.819 182.613 244.966 184.686 244.966 186.846V342.42Z" fill="#130160"/>
<path d="M249.512 192.491C251.29 193.879 253.543 194.499 255.775 194.216C258.007 193.932 260.036 192.767 261.415 190.978L282.899 163.269C284.278 161.479 284.895 159.211 284.613 156.964C284.331 154.717 283.174 152.675 281.396 151.286C280.519 150.596 279.515 150.086 278.441 149.787C277.368 149.487 276.247 149.404 275.141 149.54C274.036 149.677 272.968 150.032 271.999 150.585C271.03 151.138 270.178 151.877 269.493 152.761L248.009 180.471C247.32 181.357 246.811 182.373 246.513 183.458C246.216 184.544 246.134 185.678 246.274 186.796C246.414 187.913 246.772 188.992 247.327 189.969C247.883 190.947 248.626 191.804 249.512 192.491ZM54.6675 350.001C54.6675 352.008 55.4592 353.932 56.8684 355.35C58.2777 356.769 60.189 357.566 62.182 357.566H245.762C249.758 357.566 253.591 355.968 256.416 353.124C259.242 350.279 260.829 346.422 260.829 342.399H62.2045C61.2127 342.396 60.23 342.591 59.3132 342.972C58.3964 343.353 57.5637 343.913 56.863 344.62C56.1624 345.327 55.6076 346.166 55.2308 347.09C54.8539 348.013 54.6625 349.003 54.6675 350.001Z" fill="#130160"/>
<path d="M54.6685 350.006H245.763C248.407 350.011 251.004 349.315 253.295 347.987C255.585 346.658 257.487 344.746 258.809 342.441H62.2055C61.2168 342.438 60.2372 342.632 59.3229 343.011C58.4086 343.39 57.5775 343.946 56.8774 344.649C56.1772 345.352 55.6216 346.187 55.2426 347.106C54.8636 348.025 54.6685 349.011 54.6685 350.006Z" fill="#130160"/>
<path d="M244.966 342.42H261.152V186.809C261.142 184.654 260.285 182.592 258.769 181.072C257.252 179.552 255.199 178.699 253.059 178.699C250.913 178.699 248.854 179.558 247.336 181.085C245.819 182.613 244.966 184.686 244.966 186.846V342.42Z" fill="url(#paint11_linear_2500_17615)"/>
<path d="M249.512 192.491C251.29 193.879 253.543 194.499 255.775 194.216C258.007 193.932 260.036 192.767 261.415 190.978L282.899 163.269C284.278 161.479 284.895 159.211 284.613 156.964C284.331 154.717 283.174 152.675 281.396 151.286C280.519 150.596 279.515 150.086 278.441 149.787C277.368 149.487 276.247 149.404 275.141 149.54C274.036 149.677 272.968 150.032 271.999 150.585C271.03 151.138 270.178 151.877 269.493 152.761L248.009 180.471C247.32 181.357 246.811 182.373 246.513 183.458C246.216 184.544 246.134 185.678 246.274 186.796C246.414 187.913 246.772 188.992 247.327 189.969C247.883 190.947 248.626 191.804 249.512 192.491Z" fill="url(#paint12_linear_2500_17615)"/>
<path d="M54.6685 350.001C54.6685 352.007 55.4603 353.931 56.8695 355.35C58.2787 356.769 60.1901 357.566 62.1831 357.566H245.763C249.759 357.566 253.592 355.968 256.417 353.123C259.243 350.279 260.83 346.421 260.83 342.398H62.2056C61.2137 342.395 60.2311 342.59 59.3143 342.971C58.3975 343.353 57.5648 343.913 56.8641 344.619C56.1634 345.326 55.6087 346.166 55.2318 347.089C54.855 348.013 54.6636 349.002 54.6685 350.001Z" fill="url(#paint13_linear_2500_17615)"/>
<path d="M54.6684 350.006H245.763C248.407 350.011 251.004 349.315 253.295 347.987C255.585 346.658 257.487 344.746 258.809 342.441H62.2055C61.2168 342.438 60.2372 342.632 59.3229 343.011C58.4086 343.39 57.5775 343.946 56.8773 344.649C56.1772 345.352 55.6216 346.187 55.2426 347.106C54.8635 348.025 54.6684 349.011 54.6684 350.006Z" fill="url(#paint14_linear_2500_17615)"/>
<path d="M219.2 383.977C214.329 379.073 214.329 371.122 219.2 366.218C224.072 361.314 231.97 361.314 236.842 366.218C241.713 371.122 241.713 379.073 236.842 383.977C231.97 388.881 224.072 388.881 219.2 383.977Z" fill="url(#paint15_linear_2500_17615)"/>
<path d="M227.955 379.305C225.867 379.305 224.175 377.602 224.175 375.5C224.175 373.399 225.867 371.695 227.955 371.695C230.042 371.695 231.734 373.399 231.734 375.5C231.734 377.602 230.042 379.305 227.955 379.305Z" fill="url(#paint16_linear_2500_17615)"/>
<path d="M224.774 373.88H232.928V357.586H216.614L224.774 373.88Z" fill="url(#paint17_linear_2500_17615)"/>
<path d="M79.1107 379.908C76.4743 373.501 79.4968 366.155 85.8617 363.501C92.2265 360.847 99.5235 363.89 102.16 370.297C104.796 376.704 101.774 384.05 95.409 386.704C89.0441 389.358 81.7471 386.315 79.1107 379.908Z" fill="url(#paint18_linear_2500_17615)"/>
<path d="M94.4727 375.501C94.4727 376.249 94.2523 376.98 93.8394 377.602C93.4266 378.224 92.8398 378.709 92.1533 378.995C91.4667 379.282 90.7113 379.357 89.9824 379.211C89.2536 379.065 88.5841 378.705 88.0586 378.176C87.5331 377.647 87.1753 376.973 87.0303 376.239C86.8853 375.505 86.9597 374.745 87.2441 374.054C87.5285 373.363 88.0101 372.772 88.628 372.356C89.2458 371.941 89.9723 371.719 90.7154 371.719C91.7119 371.719 92.6676 372.117 93.3722 372.827C94.0768 373.536 94.4727 374.498 94.4727 375.501Z" fill="url(#paint19_linear_2500_17615)"/>
<path d="M93.8786 373.88H85.7253V357.586H102.039L93.8786 373.88ZM224.774 373.88H232.928V357.586H216.614L224.774 373.88Z" fill="#130160"/>
<path d="M224.774 373.88H232.928V357.586H216.614L224.774 373.88Z" fill="url(#paint20_linear_2500_17615)"/>
<path d="M93.8783 373.88H85.725V357.586H102.039L93.8783 373.88Z" fill="url(#paint21_linear_2500_17615)"/>
<path opacity="0.2" d="M279.436 216.516H260.822V294.62H279.436V216.516Z" fill="url(#paint22_linear_2500_17615)"/>
<path opacity="0.2" d="M210.121 170.969H199.661V250.692H210.121V170.969Z" fill="url(#paint23_linear_2500_17615)"/>
<path opacity="0.2" d="M240.555 251.887H230.094V340.302H240.555V251.887Z" fill="url(#paint24_linear_2500_17615)"/>
<path d="M164.231 137.852C164.231 137.852 168.206 161.688 151.329 166.968C134.451 172.248 92.5348 168.867 92.5348 168.867L54.0528 214.708L44.5695 201.788L79.3092 153.851C85.8937 146.787 94.8962 142.501 104.498 141.861L164.231 137.852Z" fill="#3F3D56"/>
<path d="M54.0215 214.714L50.0463 218.096L44.5457 210.826L47.7994 206.234L54.0215 214.714Z" fill="#DBA17B"/>
<path d="M50.0469 218.088L44.5462 210.826H40.0375C40.0375 210.826 29.1865 203.897 23.0772 205.742C16.9679 207.588 14.8112 209.903 14.8112 209.903L42.615 228.814L50.0469 218.088Z" fill="#130160"/>
<path d="M85.6593 226.091L76.5892 226.016L73.8088 229.624C73.8088 229.624 61.7254 234.011 59.4335 240.003C57.1416 245.994 57.6376 249.08 57.6376 249.08L89.5293 238.55L85.6593 226.091Z" fill="url(#paint25_linear_2500_17615)"/>
<path d="M50.0469 218.088L44.5462 210.826H40.0375C40.0375 210.826 29.1865 203.897 23.0772 205.742C16.9679 207.588 14.8112 209.903 14.8112 209.903L42.615 228.814L50.0469 218.088Z" fill="url(#paint26_linear_2500_17615)"/>
<path d="M122.028 139.302H164.402C164.572 139.233 164.736 139.15 164.891 139.052C166.206 138.296 169.715 135.459 169.309 127.706C169.016 122.146 164.049 101.63 160.006 85.5403C157.128 74.0874 154.679 64.8737 154.679 64.8737C154.679 64.8737 149.418 50.9699 140.656 47.2859C137.365 45.894 133.142 43.6171 128.565 44.5173C120.976 46.0302 113.168 52.914 112.033 62.2034C111.057 70.063 122.028 139.302 122.028 139.302Z" fill="#130160"/>
<path d="M122.028 139.302H164.402C164.572 139.233 164.736 139.15 164.891 139.052C166.206 138.296 169.715 135.459 169.309 127.705C169.016 122.145 164.049 101.63 160.006 85.5403C157.128 74.0874 154.679 64.8737 154.679 64.8737C154.679 64.8737 149.418 50.9699 140.656 47.2859C137.365 45.894 133.142 43.6171 128.565 44.5173C120.976 46.0302 113.168 52.914 112.033 62.2034C111.057 70.063 122.028 139.302 122.028 139.302Z" fill="url(#paint27_linear_2500_17615)"/>
<path d="M149.591 104.958C149.591 104.958 159.225 130.55 152.003 138.689L164.891 139.052C166.206 138.296 169.715 135.459 169.309 127.705C169.016 122.145 164.049 101.63 160.006 85.54L142.963 62.2031L149.591 104.958Z" fill="#130160"/>
<path d="M128.559 44.5185L124.05 32.0142C124.05 32.0142 118.79 11.9376 106.706 10.9164C94.6229 9.8952 84.4632 18.6702 89.5656 32.7858C94.668 46.9014 97.2605 49.027 102.175 49.965C107.09 50.9031 111.756 48.5429 111.756 48.5429L116.092 55.2149C116.092 55.2149 117.482 59.0653 128.559 44.5185Z" fill="#DBA17B"/>
<path d="M149.916 59.0128C149.916 59.0128 170.506 88.946 169.341 96.7376C167.973 105.876 129.063 107.29 113.11 107.812C111.061 107.878 109.048 107.259 107.386 106.05C105.724 104.841 104.508 103.112 103.927 101.133V101.049C103.549 99.7598 103.452 98.4032 103.643 97.0724C103.834 95.7416 104.309 94.4682 105.035 93.3395C105.761 92.2107 106.721 91.2533 107.849 90.5328C108.976 89.8124 110.246 89.3459 111.569 89.1654L138.216 85.5495L125.636 61.5091C122.435 51.2666 134.421 42.9985 142.725 49.7461C145.732 52.3015 148.181 55.4568 149.916 59.0128Z" fill="#130160"/>
<path d="M101.664 93.8384L104.948 93.4375L107.172 105.881H103.52L101.664 93.8384Z" fill="url(#paint28_linear_2500_17615)"/>
<path d="M113.004 28.874C114.049 28.3899 113.155 26.6046 113.846 25.6742C114.44 24.8648 115.747 25.2808 116.483 25.9692C117.214 26.6746 117.748 27.5608 118.032 28.5393C118.315 29.5177 118.339 30.554 118.099 31.5443C117.849 32.1702 117.754 32.8476 117.821 33.5187C118.159 34.8652 120.008 35.0316 121.345 34.6988C122.683 34.3659 124.201 33.7835 125.351 34.5626C126.328 32.906 125.651 30.7803 124.885 29.0253C123.516 25.8851 121.919 22.8509 120.105 19.9478C119.665 19.3515 119.362 18.6642 119.219 17.9356C119.099 16.8387 119.722 15.8175 120.151 14.8038C122.134 10.0078 119.429 4.18307 114.92 1.68674C110.412 -0.809583 104.791 -0.355706 100.109 1.68674C98.4035 2.44321 96.7578 3.42661 94.9242 3.80484C92.219 4.35706 89.4236 3.54008 86.6582 3.59303C84.5037 3.65961 82.3962 4.24357 80.5114 5.29624C78.6265 6.34892 77.0188 7.83983 75.8223 9.64473C74.6564 11.4798 73.9448 13.5697 73.7473 15.7389C73.5499 17.9082 73.8723 20.0934 74.6876 22.1112C75.657 24.4714 78.0316 26.7711 80.4287 25.9465C81.4131 25.6137 82.157 24.8118 83.0663 24.2974C83.9756 23.783 85.2831 23.6696 85.8993 24.5092C86.0218 24.7412 86.1789 24.953 86.3652 25.1371C87.1692 25.7347 87.8681 24.3201 88.3265 23.4351C89.4086 21.4229 92.219 21.4607 94.4884 21.5288C96.6801 21.5873 98.8718 21.4098 101.026 20.9992C102.574 20.7042 104.671 19.6452 106.286 20.0839C108.06 20.5454 112.779 28.9724 113.004 28.874Z" fill="#3F3D56"/>
<path d="M56.5772 84.0586L54.6009 86.4717L99.0644 118.742L100.838 116.216L56.5772 84.0586Z" fill="url(#paint29_linear_2500_17615)"/>
<path d="M91.3086 113.113C91.3086 113.113 90.5571 115.594 86.6796 114.339C82.8021 113.083 75.746 108.922 75.2049 107.81C74.6639 106.698 68.5846 100.457 68.9603 96.8945L91.3086 113.113Z" fill="#DBA17B"/>
</g>
<defs>
<linearGradient id="paint0_linear_2500_17615" x1="178.868" y1="-35.8992" x2="206.344" y2="446.908" gradientUnits="userSpaceOnUse">
<stop stop-color="#56B6FF"/>
<stop offset="0.608109" stop-color="#0E97FF"/>
</linearGradient>
<linearGradient id="paint1_linear_2500_17615" x1="87.905" y1="116.24" x2="88.6877" y2="114.42" gradientUnits="userSpaceOnUse">
<stop offset="0.09" stop-color="#68E1FD"/>
<stop offset="0.2" stop-color="#65D5F1"/>
<stop offset="0.4" stop-color="#5DB7D2"/>
<stop offset="0.66" stop-color="#51859F"/>
<stop offset="0.97" stop-color="#404059"/>
<stop offset="0.99" stop-color="#3F3D56"/>
</linearGradient>
<linearGradient id="paint2_linear_2500_17615" x1="260.447" y1="219.156" x2="250.769" y2="219.156" gradientUnits="userSpaceOnUse">
<stop stop-color="#2D02EC"/>
<stop offset="1" stop-color="#CCE9FF"/>
</linearGradient>
<linearGradient id="paint3_linear_2500_17615" x1="265.707" y1="256.5" x2="256.028" y2="256.5" gradientUnits="userSpaceOnUse">
<stop stop-color="#2D02EC"/>
<stop offset="1" stop-color="#CCE9FF"/>
</linearGradient>
<linearGradient id="paint4_linear_2500_17615" x1="243.717" y1="235.193" x2="257.826" y2="238.384" gradientUnits="userSpaceOnUse">
<stop stop-color="#68E1FD"/>
<stop offset="1" stop-color="#69B9EB"/>
</linearGradient>
<linearGradient id="paint5_linear_2500_17615" x1="248.924" y1="272.537" x2="263.033" y2="275.728" gradientUnits="userSpaceOnUse">
<stop stop-color="#68E1FD"/>
<stop offset="1" stop-color="#69B9EB"/>
</linearGradient>
<linearGradient id="paint6_linear_2500_17615" x1="281.781" y1="157.858" x2="211.143" y2="240.553" gradientUnits="userSpaceOnUse">
<stop stop-color="white" stop-opacity="0"/>
<stop offset="0.09" stop-color="white" stop-opacity="0.05"/>
<stop offset="0.24" stop-color="white" stop-opacity="0.17"/>
<stop offset="0.45" stop-color="white" stop-opacity="0.37"/>
<stop offset="0.69" stop-color="white" stop-opacity="0.65"/>
<stop offset="0.98" stop-color="white"/>
</linearGradient>
<linearGradient id="paint7_linear_2500_17615" x1="241.704" y1="188.683" x2="258.512" y2="192.486" gradientUnits="userSpaceOnUse">
<stop stop-color="#68E1FD"/>
<stop offset="1" stop-color="#69B9EB"/>
</linearGradient>
<linearGradient id="paint8_linear_2500_17615" x1="297.224" y1="183.042" x2="266.441" y2="218.984" gradientUnits="userSpaceOnUse">
<stop stop-color="white" stop-opacity="0"/>
<stop offset="0.09" stop-color="white" stop-opacity="0.05"/>
<stop offset="0.24" stop-color="white" stop-opacity="0.17"/>
<stop offset="0.45" stop-color="white" stop-opacity="0.37"/>
<stop offset="0.69" stop-color="white" stop-opacity="0.65"/>
<stop offset="0.98" stop-color="white"/>
</linearGradient>
<linearGradient id="paint9_linear_2500_17615" x1="283.163" y1="161.975" x2="300.002" y2="178.846" gradientUnits="userSpaceOnUse">
<stop stop-color="#183866"/>
<stop offset="1" stop-color="#1A7FC1"/>
</linearGradient>
<linearGradient id="paint10_linear_2500_17615" x1="259.035" y1="184.318" x2="294.892" y2="220.239" gradientUnits="userSpaceOnUse">
<stop stop-color="#183866"/>
<stop offset="1" stop-color="#1A7FC1"/>
</linearGradient>
<linearGradient id="paint11_linear_2500_17615" x1="261.152" y1="260.541" x2="244.966" y2="260.541" gradientUnits="userSpaceOnUse">
<stop stop-color="white" stop-opacity="0"/>
<stop offset="0.09" stop-color="white" stop-opacity="0.05"/>
<stop offset="0.24" stop-color="white" stop-opacity="0.17"/>
<stop offset="0.45" stop-color="white" stop-opacity="0.37"/>
<stop offset="0.69" stop-color="white" stop-opacity="0.65"/>
<stop offset="0.98" stop-color="white"/>
</linearGradient>
<linearGradient id="paint12_linear_2500_17615" x1="284.695" y1="171.907" x2="246.251" y2="171.907" gradientUnits="userSpaceOnUse">
<stop stop-color="white" stop-opacity="0"/>
<stop offset="0.09" stop-color="white" stop-opacity="0.05"/>
<stop offset="0.24" stop-color="white" stop-opacity="0.17"/>
<stop offset="0.45" stop-color="white" stop-opacity="0.37"/>
<stop offset="0.69" stop-color="white" stop-opacity="0.65"/>
<stop offset="0.98" stop-color="white"/>
</linearGradient>
<linearGradient id="paint13_linear_2500_17615" x1="260.83" y1="350.001" x2="54.6685" y2="350.001" gradientUnits="userSpaceOnUse">
<stop stop-color="white" stop-opacity="0"/>
<stop offset="0.09" stop-color="white" stop-opacity="0.05"/>
<stop offset="0.24" stop-color="white" stop-opacity="0.17"/>
<stop offset="0.45" stop-color="white" stop-opacity="0.37"/>
<stop offset="0.69" stop-color="white" stop-opacity="0.65"/>
<stop offset="0.98" stop-color="white"/>
</linearGradient>
<linearGradient id="paint14_linear_2500_17615" x1="258.809" y1="346.209" x2="54.6684" y2="346.209" gradientUnits="userSpaceOnUse">
<stop stop-color="white" stop-opacity="0"/>
<stop offset="0.09" stop-color="white" stop-opacity="0.05"/>
<stop offset="0.24" stop-color="white" stop-opacity="0.17"/>
<stop offset="0.45" stop-color="white" stop-opacity="0.37"/>
<stop offset="0.69" stop-color="white" stop-opacity="0.65"/>
<stop offset="0.98" stop-color="white"/>
</linearGradient>
<linearGradient id="paint15_linear_2500_17615" x1="230.928" y1="338.946" x2="227.068" y2="386.243" gradientUnits="userSpaceOnUse">
<stop offset="0.09" stop-color="#68E1FD"/>
<stop offset="0.2" stop-color="#65D5F1"/>
<stop offset="0.4" stop-color="#5DB7D2"/>
<stop offset="0.66" stop-color="#51859F"/>
<stop offset="0.97" stop-color="#404059"/>
<stop offset="0.99" stop-color="#3F3D56"/>
</linearGradient>
<linearGradient id="paint16_linear_2500_17615" x1="228.06" y1="374.252" x2="226.887" y2="388.571" gradientUnits="userSpaceOnUse">
<stop stop-color="#183866"/>
<stop offset="1" stop-color="#1A7FC1"/>
</linearGradient>
<linearGradient id="paint17_linear_2500_17615" x1="232.928" y1="365.733" x2="216.614" y2="365.733" gradientUnits="userSpaceOnUse">
<stop stop-color="white" stop-opacity="0"/>
<stop offset="0.09" stop-color="white" stop-opacity="0.05"/>
<stop offset="0.24" stop-color="white" stop-opacity="0.17"/>
<stop offset="0.45" stop-color="white" stop-opacity="0.37"/>
<stop offset="0.69" stop-color="white" stop-opacity="0.65"/>
<stop offset="0.98" stop-color="white"/>
</linearGradient>
<linearGradient id="paint18_linear_2500_17615" x1="76.5373" y1="334.871" x2="80.4274" y2="381.947" gradientUnits="userSpaceOnUse">
<stop offset="0.09" stop-color="#68E1FD"/>
<stop offset="0.2" stop-color="#65D5F1"/>
<stop offset="0.4" stop-color="#5DB7D2"/>
<stop offset="0.66" stop-color="#51859F"/>
<stop offset="0.97" stop-color="#404059"/>
<stop offset="0.99" stop-color="#3F3D56"/>
</linearGradient>
<linearGradient id="paint19_linear_2500_17615" x1="90.5952" y1="374.253" x2="91.7678" y2="388.571" gradientUnits="userSpaceOnUse">
<stop stop-color="#183866"/>
<stop offset="1" stop-color="#1A7FC1"/>
</linearGradient>
<linearGradient id="paint20_linear_2500_17615" x1="235.49" y1="361.989" x2="219.228" y2="367.595" gradientUnits="userSpaceOnUse">
<stop stop-color="white" stop-opacity="0"/>
<stop offset="0.09" stop-color="white" stop-opacity="0.05"/>
<stop offset="0.24" stop-color="white" stop-opacity="0.17"/>
<stop offset="0.45" stop-color="white" stop-opacity="0.37"/>
<stop offset="0.69" stop-color="white" stop-opacity="0.65"/>
<stop offset="0.98" stop-color="white"/>
</linearGradient>
<linearGradient id="paint21_linear_2500_17615" x1="102.039" y1="365.733" x2="85.725" y2="365.733" gradientUnits="userSpaceOnUse">
<stop stop-color="white" stop-opacity="0"/>
<stop offset="0.09" stop-color="white" stop-opacity="0.05"/>
<stop offset="0.24" stop-color="white" stop-opacity="0.17"/>
<stop offset="0.45" stop-color="white" stop-opacity="0.37"/>
<stop offset="0.69" stop-color="white" stop-opacity="0.65"/>
<stop offset="0.98" stop-color="white"/>
</linearGradient>
<linearGradient id="paint22_linear_2500_17615" x1="246.116" y1="231.199" x2="294.456" y2="279.616" gradientUnits="userSpaceOnUse">
<stop stop-color="#183866"/>
<stop offset="1" stop-color="#1A7FC1"/>
</linearGradient>
<linearGradient id="paint23_linear_2500_17615" x1="182.505" y1="188.095" x2="227.584" y2="233.252" gradientUnits="userSpaceOnUse">
<stop stop-color="#183866"/>
<stop offset="1" stop-color="#1A7FC1"/>
</linearGradient>
<linearGradient id="paint24_linear_2500_17615" x1="210.775" y1="271.177" x2="260.203" y2="320.692" gradientUnits="userSpaceOnUse">
<stop stop-color="#183866"/>
<stop offset="1" stop-color="#1A7FC1"/>
</linearGradient>
<linearGradient id="paint25_linear_2500_17615" x1="89.5293" y1="237.559" x2="57.5925" y2="237.559" gradientUnits="userSpaceOnUse">
<stop stop-opacity="0"/>
<stop offset="0.2" stop-color="#09080C" stop-opacity="0.14"/>
<stop offset="0.57" stop-color="#201F2B" stop-opacity="0.5"/>
<stop offset="0.99" stop-color="#3F3D56"/>
</linearGradient>
<linearGradient id="paint26_linear_2500_17615" x1="50.0469" y1="217.12" x2="14.8037" y2="217.12" gradientUnits="userSpaceOnUse">
<stop stop-opacity="0"/>
<stop offset="0.2" stop-color="#09080C" stop-opacity="0.14"/>
<stop offset="0.57" stop-color="#201F2B" stop-opacity="0.5"/>
<stop offset="0.99" stop-color="#3F3D56"/>
</linearGradient>
<linearGradient id="paint27_linear_2500_17615" x1="105.684" y1="86.3043" x2="255.885" y2="124.248" gradientUnits="userSpaceOnUse">
<stop stop-opacity="0"/>
<stop offset="0.2" stop-color="#09080C" stop-opacity="0.14"/>
<stop offset="0.57" stop-color="#201F2B" stop-opacity="0.5"/>
<stop offset="0.99" stop-color="#3F3D56"/>
</linearGradient>
<linearGradient id="paint28_linear_2500_17615" x1="98.3047" y1="88.7777" x2="110.018" y2="109.991" gradientUnits="userSpaceOnUse">
<stop offset="0.09" stop-color="#68E1FD"/>
<stop offset="0.2" stop-color="#65D5F1"/>
<stop offset="0.4" stop-color="#5DB7D2"/>
<stop offset="0.66" stop-color="#51859F"/>
<stop offset="0.97" stop-color="#404059"/>
<stop offset="0.99" stop-color="#3F3D56"/>
</linearGradient>
<linearGradient id="paint29_linear_2500_17615" x1="81.3902" y1="95.0576" x2="76.5106" y2="103.297" gradientUnits="userSpaceOnUse">
<stop offset="0.09" stop-color="#68E1FD"/>
<stop offset="0.2" stop-color="#65D5F1"/>
<stop offset="0.4" stop-color="#5DB7D2"/>
<stop offset="0.66" stop-color="#51859F"/>
<stop offset="0.97" stop-color="#404059"/>
<stop offset="0.99" stop-color="#3F3D56"/>
</linearGradient>
<clipPath id="clip0_2500_17615">
<rect width="412" height="448" fill="white" transform="matrix(-1 0 0 1 412 0)"/>
</clipPath>
</defs>
</svg>
